<?xml version="1.0" encoding="UTF-8" standalone="no"?>
<svg
   xmlns:dc="http://purl.org/dc/elements/1.1/"
   xmlns:cc="http://creativecommons.org/ns#"
   xmlns:rdf="http://www.w3.org/1999/02/22-rdf-syntax-ns#"
   xmlns:svg="http://www.w3.org/2000/svg"
   xmlns="http://www.w3.org/2000/svg"
   xmlns:sodipodi="http://sodipodi.sourceforge.net/DTD/sodipodi-0.dtd"
   xmlns:inkscape="http://www.inkscape.org/namespaces/inkscape"
   height="2500"
   width="2490"
   viewBox="0 0 256 256"
   version="1.1"
   id="svg835"
   sodipodi:docname="linkedin-icon-2.svg"
   inkscape:version="0.92.4 (5da689c313, 2019-01-14)">
  <metadata
     id="metadata841">
    <rdf:RDF>
      <cc:Work
         rdf:about="">
        <dc:format>image/svg+xml</dc:format>
        <dc:type
           rdf:resource="http://purl.org/dc/dcmitype/StillImage" />
      </cc:Work>
    </rdf:RDF>
  </metadata>
  <defs
     id="defs839" />
  <sodipodi:namedview
     pagecolor="#ffffff"
     bordercolor="#666666"
     borderopacity="1"
     objecttolerance="10"
     gridtolerance="10"
     guidetolerance="10"
     inkscape:pageopacity="0"
     inkscape:pageshadow="2"
     inkscape:window-width="1920"
     inkscape:window-height="1001"
     id="namedview837"
     showgrid="false"
     inkscape:zoom="0.3316"
     inkscape:cx="1244.3529"
     inkscape:cy="1248.8578"
     inkscape:window-x="-9"
     inkscape:window-y="-9"
     inkscape:window-maximized="1"
     inkscape:current-layer="svg835" />
  <path
     style="fill:#ffffff;stroke-width:0.99999994"
     d="M 18.920087,2.495e-6 C 8.474088,2.495e-6 8.1e-6,8.2159539 8.1e-6,18.337953 V 237.66807 C 8.1e-6,247.79108 8.475088,256 18.920087,256 H 237.07992 c 10.44999,0 18.92007,-8.20994 18.92007,-18.33494 V 18.337953 C 255.99999,8.2159539 247.52991,2.495e-6 237.07992,2.495e-6 Z M 58.904021,43.427913 c 13.102,0 21.167068,8.603059 21.417068,19.915059 0,11.06 -8.315084,19.910038 -21.671084,19.910038 l -0.003,-0.001 h -0.247992 c -12.856999,0 -21.169075,-8.85004 -21.169075,-19.910039 0,-11.311 8.563096,-19.914055 21.674095,-19.914055 z M 171.83293,96.283934 c 25.203,0 44.09899,16.473086 44.09899,51.872086 v 66.08193 h -38.30401 v -61.65 c 0,-15.49499 -5.54682,-26.06305 -19.40482,-26.06305 -10.585,0 -16.88802,7.12705 -19.65603,14.01205 -1.01199,2.457 -1.26204,5.90598 -1.26204,9.34598 v 64.35502 H 99.000004 l -0.001,0.004 c 0,0 0.503012,-104.44001 0.003,-115.252012 H 137.30803 V 115.3056 c 5.09154,-7.85173 14.20158,-19.021686 34.52489,-19.021686 z M 39.487958,98.985942 h 38.30803 V 214.23795 h -38.30803 z"
     id="path829"
     inkscape:connector-curvature="0" />
</svg>
